<?xml version="1.0" encoding="UTF-8"?>
<!DOCTYPE svg PUBLIC "-//W3C//DTD SVG 1.1//EN" "http://www.w3.org/Graphics/SVG/1.1/DTD/svg11.dtd">
<svg xmlns="http://www.w3.org/2000/svg" version="1.1" width="500px" height="500px" style="shape-rendering:geometricPrecision; text-rendering:geometricPrecision; image-rendering:optimizeQuality; fill-rule:evenodd; clip-rule:evenodd" xmlns:xlink="http://www.w3.org/1999/xlink">
<g><path style="opacity:1" fill="#2a4362" d="M -0.5,-0.5 C 166.167,-0.5 332.833,-0.5 499.5,-0.5C 499.5,166.167 499.5,332.833 499.5,499.5C 332.833,499.5 166.167,499.5 -0.5,499.5C -0.5,332.833 -0.5,166.167 -0.5,-0.5 Z"/></g>
<g><path style="opacity:1" fill="#2ec3c7" d="M 205.5,70.5 C 215.506,70.3335 225.506,70.5002 235.5,71C 236.667,72.1667 237.833,73.3333 239,74.5C 240.613,84.0661 240.947,93.7328 240,103.5C 238.332,107.165 235.499,109.332 231.5,110C 223.5,110.667 215.5,110.667 207.5,110C 203.667,108.833 201.167,106.333 200,102.5C 199.333,94.1667 199.333,85.8333 200,77.5C 200.967,74.3794 202.8,72.046 205.5,70.5 Z"/></g>
<g><path style="opacity:1" fill="#2a4362" d="M 206.5,72.5 C 215.839,72.3335 225.173,72.5002 234.5,73C 235.333,73.8333 236.167,74.6667 237,75.5C 237.667,84.8333 237.667,94.1667 237,103.5C 236.626,104.416 236.126,105.25 235.5,106C 230.442,107.116 225.275,107.616 220,107.5C 215.5,107.333 211,107.167 206.5,107C 205.584,106.626 204.75,106.126 204,105.5C 202.387,95.9339 202.053,86.2672 203,76.5C 203.69,74.6498 204.856,73.3164 206.5,72.5 Z"/></g>
<g><path style="opacity:1" fill="#2ed1d3" d="M 335.5,78.5 C 348.171,78.3334 360.838,78.5001 373.5,79C 379.026,80.5264 382.526,84.0264 384,89.5C 384.667,102.5 384.667,115.5 384,128.5C 382.6,131.902 380.433,134.736 377.5,137C 362.902,138.616 348.235,138.949 333.5,138C 329.612,135.778 326.779,132.612 325,128.5C 324.333,115.167 324.333,101.833 325,88.5C 327.106,83.5573 330.606,80.224 335.5,78.5 Z"/></g>
<g><path style="opacity:1" fill="#2a4463" d="M 334.5,81.5 C 347.837,81.3334 361.171,81.5001 374.5,82C 378.219,83.263 380.719,85.763 382,89.5C 382.667,102.167 382.667,114.833 382,127.5C 380.939,130.562 379.106,133.062 376.5,135C 362.569,136.614 348.569,136.947 334.5,136C 330.51,134.01 328.01,130.843 327,126.5C 326.333,114.167 326.333,101.833 327,89.5C 328.387,85.6778 330.887,83.0112 334.5,81.5 Z"/></g>
<g><path style="opacity:1" fill="#2ed0d2" d="M 203.5,148.5 C 209.509,148.334 215.509,148.501 221.5,149C 222.667,150.167 223.833,151.333 225,152.5C 225.667,159.167 225.667,165.833 225,172.5C 224.167,173.333 223.333,174.167 222.5,175C 215.5,175.667 208.5,175.667 201.5,175C 201,174.5 200.5,174 200,173.5C 198.409,166.608 198.076,159.608 199,152.5C 200.397,150.93 201.897,149.596 203.5,148.5 Z"/></g>
<g><path style="opacity:1" fill="#2a4563" d="M 202.5,151.5 C 208.842,151.334 215.175,151.5 221.5,152C 222,152.5 222.5,153 223,153.5C 223.667,159.5 223.667,165.5 223,171.5C 222.5,172 222,172.5 221.5,173C 215.5,173.667 209.5,173.667 203.5,173C 202.692,172.692 202.025,172.192 201.5,171.5C 200.376,165.552 200.21,159.552 201,153.5C 201.717,152.956 202.217,152.289 202.5,151.5 Z"/></g>
<g><path style="opacity:1" fill="#2ecacd" d="M 255.5,149.5 C 271.837,149.333 288.17,149.5 304.5,150C 311.333,151.5 315.5,155.667 317,162.5C 317.667,177.167 317.667,191.833 317,206.5C 315.703,213.798 311.536,218.631 304.5,221C 288.833,221.667 273.167,221.667 257.5,221C 251.359,218.859 247.193,214.693 245,208.5C 244.333,193.167 244.333,177.833 245,162.5C 246.625,156.547 250.125,152.214 255.5,149.5 Z"/></g>
<g><path style="opacity:1" fill="#2a4362" d="M 258.5,151.5 C 273.837,151.333 289.17,151.5 304.5,152C 307.902,153.4 310.736,155.567 313,158.5C 314.637,175.075 314.97,191.742 314,208.5C 312.526,213.974 309.026,217.474 303.5,219C 288.5,219.667 273.5,219.667 258.5,219C 253.427,217.594 249.927,214.428 248,209.5C 247.333,193.167 247.333,176.833 248,160.5C 250.463,156.198 253.963,153.198 258.5,151.5 Z"/></g>
<g><path style="opacity:1" fill="#2ed6d7" d="M 118.5,169.5 C 124.842,169.334 131.175,169.5 137.5,170C 138.416,170.374 139.25,170.874 140,171.5C 147.327,192.504 140.16,200.67 118.5,196C 117.333,194.833 116.167,193.667 115,192.5C 114.333,186.167 114.333,179.833 115,173.5C 115.69,171.65 116.856,170.316 118.5,169.5 Z"/></g>
<g><path style="opacity:1" fill="#2a4664" d="M 118.5,171.5 C 124.509,171.334 130.509,171.501 136.5,172C 137.308,172.308 137.975,172.808 138.5,173.5C 139.624,179.448 139.79,185.448 139,191.5C 138.5,192 138,192.5 137.5,193C 131.167,193.667 124.833,193.667 118.5,193C 118,192.5 117.5,192 117,191.5C 115.962,184.628 116.462,177.962 118.5,171.5 Z"/></g>
<g><path style="opacity:1" fill="#2ec8cb" d="M 167.5,208.5 C 176.173,208.334 184.84,208.5 193.5,209C 195.587,209.792 197.421,210.959 199,212.5C 200.617,222.734 200.95,233.067 200,243.5C 199.535,244.931 198.701,246.097 197.5,247C 187.266,248.617 176.933,248.95 166.5,248C 164.714,247.215 163.214,246.049 162,244.5C 160.387,234.934 160.053,225.267 161,215.5C 162.694,212.642 164.861,210.309 167.5,208.5 Z"/></g>
<g><path style="opacity:1" fill="#2a4362" d="M 166.5,211.5 C 175.839,211.334 185.173,211.5 194.5,212C 195.416,212.374 196.25,212.874 197,213.5C 198.116,218.558 198.616,223.725 198.5,229C 198.333,233.5 198.167,238 198,242.5C 197.626,243.416 197.126,244.25 196.5,245C 186.6,246.615 176.6,246.949 166.5,246C 165.667,245.167 164.833,244.333 164,243.5C 163.333,233.833 163.333,224.167 164,214.5C 165.045,213.627 165.878,212.627 166.5,211.5 Z"/></g>
<g><path style="opacity:1" fill="#41b6d2" d="M 247.5,285.5 C 252.88,285.324 258.213,285.658 263.5,286.5C 263.5,289.833 263.5,293.167 263.5,296.5C 262.167,296.5 260.833,296.5 259.5,296.5C 260.332,291.001 257.998,288.334 252.5,288.5C 247.153,288.674 243.653,291.341 242,296.5C 240.902,303.385 241.569,310.051 244,316.5C 247.87,321.563 252.704,322.73 258.5,320C 259.26,318.559 259.926,317.059 260.5,315.5C 261.689,314.571 263.022,314.238 264.5,314.5C 264.221,317.118 263.554,319.618 262.5,322C 242.913,327.422 233.747,319.922 235,299.5C 236.926,292.745 241.093,288.078 247.5,285.5 Z"/></g>
<g><path style="opacity:1" fill="#42bbd6" d="M 268.5,285.5 C 276.585,285.099 284.585,285.599 292.5,287C 298.095,293.042 297.428,298.375 290.5,303C 298.031,304.62 300.531,309.12 298,316.5C 296.878,318.624 295.378,320.457 293.5,322C 285.236,323.37 276.903,323.87 268.5,323.5C 268.5,322.5 268.5,321.5 268.5,320.5C 269.833,320.5 271.167,320.5 272.5,320.5C 272.5,309.833 272.5,299.167 272.5,288.5C 271.167,288.5 269.833,288.5 268.5,288.5C 268.5,287.5 268.5,286.5 268.5,285.5 Z"/></g>
<g><path style="opacity:1" fill="#42b7d2" d="M 331.5,285.5 C 336.862,285.472 342.195,285.806 347.5,286.5C 347.5,289.5 347.5,292.5 347.5,295.5C 346.167,295.5 344.833,295.5 343.5,295.5C 344.255,290.422 342.088,288.089 337,288.5C 331.246,288.261 329.246,290.928 331,296.5C 334.91,300.208 339.41,303.042 344.5,305C 352.218,313.551 350.551,319.885 339.5,324C 334.397,324.571 329.397,324.071 324.5,322.5C 324.5,319.167 324.5,315.833 324.5,312.5C 325.833,312.5 327.167,312.5 328.5,312.5C 328.912,321.054 333.245,323.554 341.5,320C 344.077,316.595 344.077,313.262 341.5,310C 337.5,308 333.5,306 329.5,304C 322.468,297.022 323.134,290.856 331.5,285.5 Z"/></g>
<g><path style="opacity:1" fill="#42b7d3" d="M 150.5,285.5 C 155.167,285.5 159.833,285.5 164.5,285.5C 166.825,294.976 169.658,304.309 173,313.5C 175.462,304.445 178.129,295.445 181,286.5C 185.401,285.533 189.901,285.2 194.5,285.5C 194.5,286.5 194.5,287.5 194.5,288.5C 192.833,288.5 191.167,288.5 189.5,288.5C 190.833,299.161 192.166,309.827 193.5,320.5C 195.924,320.808 198.257,320.474 200.5,319.5C 204.629,308.613 208.463,297.613 212,286.5C 214.139,285.231 216.305,285.231 218.5,286.5C 222.432,297.129 226.265,307.795 230,318.5C 230.71,319.973 231.876,320.64 233.5,320.5C 233.5,321.5 233.5,322.5 233.5,323.5C 229.167,323.5 224.833,323.5 220.5,323.5C 220.5,322.5 220.5,321.5 220.5,320.5C 221.978,320.762 223.311,320.429 224.5,319.5C 223.833,317.833 223.167,316.167 222.5,314.5C 217.208,313.505 211.875,313.172 206.5,313.5C 206.007,315.806 205.674,318.139 205.5,320.5C 206.833,320.5 208.167,320.5 209.5,320.5C 209.5,321.5 209.5,322.5 209.5,323.5C 200.5,323.5 191.5,323.5 182.5,323.5C 182.5,322.5 182.5,321.5 182.5,320.5C 184.167,320.5 185.833,320.5 187.5,320.5C 186.484,310.157 185.317,299.823 184,289.5C 180.469,299.761 177.135,310.094 174,320.5C 172.667,321.833 171.333,321.833 170,320.5C 166.864,310.759 163.531,301.092 160,291.5C 159.667,291.833 159.333,292.167 159,292.5C 157.791,301.8 156.958,311.133 156.5,320.5C 158.167,320.5 159.833,320.5 161.5,320.5C 161.5,321.5 161.5,322.5 161.5,323.5C 156.833,323.5 152.167,323.5 147.5,323.5C 147.5,322.5 147.5,321.5 147.5,320.5C 149.167,320.5 150.833,320.5 152.5,320.5C 153.39,309.815 154.39,299.148 155.5,288.5C 153.833,288.5 152.167,288.5 150.5,288.5C 150.5,287.5 150.5,286.5 150.5,285.5 Z"/></g>
<g><path style="opacity:1" fill="#43bed9" d="M 307.5,320.5 C 308.494,310.013 308.828,299.346 308.5,288.5C 307.5,288.5 306.5,288.5 305.5,288.5C 303.952,288.179 303.285,287.179 303.5,285.5C 308.5,285.5 313.5,285.5 318.5,285.5C 318.5,286.5 318.5,287.5 318.5,288.5C 316.833,288.5 315.167,288.5 313.5,288.5C 313.5,299.167 313.5,309.833 313.5,320.5C 315.167,320.5 316.833,320.5 318.5,320.5C 318.5,321.5 318.5,322.5 318.5,323.5C 313.5,323.5 308.5,323.5 303.5,323.5C 303.5,322.5 303.5,321.5 303.5,320.5C 304.833,320.5 306.167,320.5 307.5,320.5 Z"/></g>
<g><path style="opacity:1" fill="#2b4867" d="M 277.5,288.5 C 289.069,286.221 292.736,290.387 288.5,301C 284.974,302.337 281.308,302.837 277.5,302.5C 277.5,297.833 277.5,293.167 277.5,288.5 Z"/></g>
<g><path style="opacity:1" fill="#326c8a" d="M 305.5,288.5 C 306.5,288.5 307.5,288.5 308.5,288.5C 308.828,299.346 308.494,310.013 307.5,320.5C 308.107,309.577 307.44,298.91 305.5,288.5 Z"/></g>
<g><path style="opacity:1" fill="#2b4968" d="M 214.5,291.5 C 217.473,297.085 219.473,303.085 220.5,309.5C 216.445,309.824 212.445,309.491 208.5,308.5C 210.111,302.665 212.111,296.998 214.5,291.5 Z"/></g>
<g><path style="opacity:1" fill="#2b4766" d="M 277.5,305.5 C 281.936,305.21 286.27,305.71 290.5,307C 293.099,310.933 293.099,314.933 290.5,319C 286.3,320.367 281.967,320.867 277.5,320.5C 277.5,315.5 277.5,310.5 277.5,305.5 Z"/></g>
<g><path style="opacity:1" fill="#c6c9cc" d="M 128.5,366.5 C 133.167,366.5 137.833,366.5 142.5,366.5C 142.762,367.978 142.429,369.311 141.5,370.5C 139.132,368.777 136.466,368.11 133.5,368.5C 133.5,370.833 133.5,373.167 133.5,375.5C 135.821,375.771 137.821,375.104 139.5,373.5C 140.833,375.833 140.833,378.167 139.5,380.5C 138.614,379.675 138.281,378.675 138.5,377.5C 136.833,377.5 135.167,377.5 133.5,377.5C 133.5,380.167 133.5,382.833 133.5,385.5C 137.397,386.03 140.73,385.03 143.5,382.5C 144.452,384.045 144.785,385.712 144.5,387.5C 138.824,387.666 133.157,387.499 127.5,387C 128.025,386.308 128.692,385.808 129.5,385.5C 130.983,378.984 130.65,372.651 128.5,366.5 Z"/></g>
<g><path style="opacity:1" fill="#cacccf" d="M 180.5,368.5 C 179.51,374.31 179.177,380.31 179.5,386.5C 180.5,386.5 181.5,386.5 182.5,386.5C 179.696,387.638 176.696,387.805 173.5,387C 174.025,386.308 174.692,385.808 175.5,385.5C 176.495,379.872 176.829,374.206 176.5,368.5C 175.325,368.719 174.325,368.386 173.5,367.5C 176.5,366.167 179.5,366.167 182.5,367.5C 182.043,368.298 181.376,368.631 180.5,368.5 Z"/></g>
<g><path style="opacity:1" fill="#c2c5c9" d="M 222.5,372.5 C 222.217,371.711 221.717,371.044 221,370.5C 220.184,375.684 220.35,380.684 221.5,385.5C 222.376,385.369 223.043,385.702 223.5,386.5C 221.167,387.833 218.833,387.833 216.5,386.5C 217.738,383.531 218.405,380.364 218.5,377C 218.405,373.636 217.738,370.469 216.5,367.5C 218.5,366.167 220.5,366.167 222.5,367.5C 225.914,371.994 229.081,376.66 232,381.5C 233.025,376.598 232.525,371.931 230.5,367.5C 232.833,366.167 235.167,366.167 237.5,367.5C 236.675,368.386 235.675,368.719 234.5,368.5C 234.83,374.868 234.496,381.202 233.5,387.5C 229.454,382.786 225.788,377.786 222.5,372.5 Z"/></g>
<g><path style="opacity:1" fill="#c5c8cb" d="M 276.5,366.5 C 279.247,366.187 281.914,366.52 284.5,367.5C 283.833,368.167 283.167,368.833 282.5,369.5C 283.747,372.329 285.247,374.995 287,377.5C 287.892,374.716 289.058,372.05 290.5,369.5C 290.167,368.833 289.833,368.167 289.5,367.5C 291.5,366.167 293.5,366.167 295.5,367.5C 290.63,372.569 287.963,378.569 287.5,385.5C 289.103,385.312 290.437,385.812 291.5,387C 288.118,387.824 284.784,387.657 281.5,386.5C 282.325,385.614 283.325,385.281 284.5,385.5C 284.663,383.143 284.497,380.81 284,378.5C 281.714,374.239 279.214,370.239 276.5,366.5 Z"/></g>
<g><path style="opacity:1" fill="#c9cbce" d="M 323.5,366.5 C 329.5,366.5 335.5,366.5 341.5,366.5C 341.813,369.247 341.48,371.914 340.5,374.5C 339.534,372.604 339.201,370.604 339.5,368.5C 337.833,368.5 336.167,368.5 334.5,368.5C 333.51,374.31 333.177,380.31 333.5,386.5C 334.833,386.5 336.167,386.5 337.5,386.5C 334.024,387.643 330.358,387.81 326.5,387C 327.563,385.812 328.897,385.312 330.5,385.5C 330.5,379.833 330.5,374.167 330.5,368.5C 328.833,368.5 327.167,368.5 325.5,368.5C 325.5,369.5 325.5,370.5 325.5,371.5C 324.778,371.918 324.278,372.584 324,373.5C 323.503,371.19 323.337,368.857 323.5,366.5 Z"/></g>
<g><path style="opacity:1" fill="#c3c6ca" d="M 360.5,368.5 C 358.393,367.532 356.059,367.198 353.5,367.5C 353.5,370.5 353.5,373.5 353.5,376.5C 355.415,376.784 357.081,376.451 358.5,375.5C 358.369,374.624 358.702,373.957 359.5,373.5C 360.833,375.833 360.833,378.167 359.5,380.5C 358.614,379.675 358.281,378.675 358.5,377.5C 357.167,377.5 355.833,377.5 354.5,377.5C 354.5,380.167 354.5,382.833 354.5,385.5C 357.167,385.5 359.833,385.5 362.5,385.5C 362.281,384.325 362.614,383.325 363.5,382.5C 364.452,384.045 364.785,385.712 364.5,387.5C 359.125,387.828 353.792,387.495 348.5,386.5C 349.738,383.531 350.405,380.364 350.5,377C 350.405,373.636 349.738,370.469 348.5,367.5C 353.456,366.506 358.456,366.173 363.5,366.5C 363.651,371.614 362.651,372.281 360.5,368.5 Z"/></g>
<g><path style="opacity:1" fill="#c3c6ca" d="M 372.5,366.5 C 375.247,366.187 377.914,366.52 380.5,367.5C 381.897,372.192 383.397,376.859 385,381.5C 386.199,376.735 387.699,372.069 389.5,367.5C 392.167,366.167 394.833,366.167 397.5,367.5C 396.675,368.386 395.675,368.719 394.5,368.5C 395.043,373.342 395.709,378.175 396.5,383C 396.844,384.365 397.511,385.532 398.5,386.5C 395.833,387.833 393.167,387.833 390.5,386.5C 392.867,380.652 393.034,374.652 391,368.5C 389.516,374.789 387.349,380.789 384.5,386.5C 382.049,381.321 379.882,375.988 378,370.5C 377.667,370.833 377.333,371.167 377,371.5C 375.964,376.73 376.464,381.73 378.5,386.5C 376.167,387.833 373.833,387.833 371.5,386.5C 372.727,385.41 373.56,384.076 374,382.5C 374.226,378.113 374.726,373.779 375.5,369.5C 374.007,368.859 373.007,367.859 372.5,366.5 Z"/></g>
<g><path style="opacity:1" fill="#c8cacd" d="M 196.5,366.5 C 200.167,366.5 203.833,366.5 207.5,366.5C 207.799,368.604 207.466,370.604 206.5,372.5C 204.889,371.68 204.222,370.346 204.5,368.5C 197.433,366.573 193.766,369.24 193.5,376.5C 193.413,381.697 195.747,385.03 200.5,386.5C 201.554,386.32 202.554,385.987 203.5,385.5C 204.474,383.257 204.808,380.924 204.5,378.5C 199.248,377.742 199.415,377.075 205,376.5C 206.5,376.833 208,377.167 209.5,377.5C 208.047,380.298 207.047,383.298 206.5,386.5C 193.928,390.096 188.761,385.429 191,372.5C 192.36,369.977 194.193,367.977 196.5,366.5 Z"/></g>
<g><path style="opacity:1" fill="#c4c7cb" d="M 101.5,366.5 C 105.846,366.334 110.179,366.501 114.5,367C 116.329,367.273 117.829,368.107 119,369.5C 122.686,384.646 116.852,390.313 101.5,386.5C 102.738,383.531 103.405,380.364 103.5,377C 103.328,373.318 102.661,369.818 101.5,366.5 Z"/></g>
<g><path style="opacity:1" fill="#364c6a" d="M 107.5,367.5 C 113.768,366.937 117.101,369.771 117.5,376C 117.682,383.652 114.016,386.819 106.5,385.5C 106.211,379.409 106.545,373.409 107.5,367.5 Z"/></g>
<g><path style="opacity:1" fill="#c6c8cc" d="M 155.5,366.5 C 158.448,366.223 161.281,366.556 164,367.5C 164.798,369.259 164.631,370.926 163.5,372.5C 162.719,371.271 162.219,369.938 162,368.5C 158.886,366.821 156.719,367.655 155.5,371C 155.759,372.261 156.426,373.261 157.5,374C 160.759,375.211 163.592,377.044 166,379.5C 166.855,382.956 165.689,385.456 162.5,387C 159.24,387.784 156.073,387.617 153,386.5C 152.602,380.656 153.435,380.323 155.5,385.5C 161.217,387.492 163.217,385.658 161.5,380C 158.241,378.789 155.408,376.956 153,374.5C 152.018,371.225 152.851,368.559 155.5,366.5 Z"/></g>
<g><path style="opacity:1" fill="#5b6c82" d="M 180.5,368.5 C 179.947,374.792 180.614,380.792 182.5,386.5C 181.5,386.5 180.5,386.5 179.5,386.5C 179.177,380.31 179.51,374.31 180.5,368.5 Z"/></g>
<g><path style="opacity:1" fill="#c0c4c8" d="M 259.5,366.5 C 262.833,366.5 266.167,366.5 269.5,366.5C 269.799,368.604 269.466,370.604 268.5,372.5C 267.571,371.311 267.238,369.978 267.5,368.5C 265.167,368.5 262.833,368.5 260.5,368.5C 260.34,370.199 260.506,371.866 261,373.5C 264.344,375.004 267.344,377.004 270,379.5C 271.041,382.636 270.207,385.136 267.5,387C 264.167,387.667 260.833,387.667 257.5,387C 256.594,385.301 256.261,383.467 256.5,381.5C 257.5,381.5 258.5,381.5 259.5,381.5C 259.5,382.833 259.5,384.167 259.5,385.5C 261.857,385.663 264.19,385.497 266.5,385C 267.833,383.333 267.833,381.667 266.5,380C 262.688,378.685 259.521,376.518 257,373.5C 256.683,370.793 257.516,368.46 259.5,366.5 Z"/></g>
<g><path style="opacity:1" fill="#c6c8cc" d="M 305.5,366.5 C 308.448,366.223 311.281,366.556 314,367.5C 314.798,369.259 314.631,370.926 313.5,372.5C 312.719,371.271 312.219,369.938 312,368.5C 308.886,366.821 306.719,367.655 305.5,371C 305.759,372.261 306.426,373.261 307.5,374C 310.759,375.211 313.592,377.044 316,379.5C 316.855,382.956 315.689,385.456 312.5,387C 309.24,387.784 306.073,387.617 303,386.5C 302.602,380.656 303.435,380.323 305.5,385.5C 311.217,387.492 313.217,385.658 311.5,380C 308.241,378.789 305.408,376.956 303,374.5C 302.018,371.225 302.851,368.559 305.5,366.5 Z"/></g>
<g><path style="opacity:1" fill="#6b7b8e" d="M 334.5,368.5 C 334.5,374.167 334.5,379.833 334.5,385.5C 335.791,385.263 336.791,385.596 337.5,386.5C 336.167,386.5 334.833,386.5 333.5,386.5C 333.177,380.31 333.51,374.31 334.5,368.5 Z"/></g>
<g><path style="opacity:1" fill="#8793a1" d="M 360.5,368.5 C 358.5,368.5 356.5,368.5 354.5,368.5C 354.5,370.833 354.5,373.167 354.5,375.5C 355.833,375.5 357.167,375.5 358.5,375.5C 357.081,376.451 355.415,376.784 353.5,376.5C 353.5,373.5 353.5,370.5 353.5,367.5C 356.059,367.198 358.393,367.532 360.5,368.5 Z"/></g>
<g><path style="opacity:1" fill="#6d7c8f" d="M 222.5,372.5 C 221.515,376.634 221.182,380.968 221.5,385.5C 220.35,380.684 220.184,375.684 221,370.5C 221.717,371.044 222.217,371.711 222.5,372.5 Z"/></g>
<g><path style="opacity:1" fill="#707f91" d="M 323.5,366.5 C 323.337,368.857 323.503,371.19 324,373.5C 324.278,372.584 324.778,371.918 325.5,371.5C 325.5,372.5 325.5,373.5 325.5,374.5C 324.5,374.5 323.5,374.5 322.5,374.5C 322.194,371.615 322.527,368.948 323.5,366.5 Z"/></g>
</svg>
