<?xml version="1.0" encoding="UTF-8"?>
<!DOCTYPE svg PUBLIC "-//W3C//DTD SVG 1.1//EN" "http://www.w3.org/Graphics/SVG/1.1/DTD/svg11.dtd">
<svg xmlns="http://www.w3.org/2000/svg" version="1.1" width="500px" height="500px" style="shape-rendering:geometricPrecision; text-rendering:geometricPrecision; image-rendering:optimizeQuality; fill-rule:evenodd; clip-rule:evenodd" xmlns:xlink="http://www.w3.org/1999/xlink">
<g><path style="opacity:1" fill="#2a4362" d="M -0.5,-0.5 C 166.167,-0.5 332.833,-0.5 499.5,-0.5C 499.5,166.167 499.5,332.833 499.5,499.5C 332.833,499.5 166.167,499.5 -0.5,499.5C -0.5,332.833 -0.5,166.167 -0.5,-0.5 Z"/></g>
<g><path style="opacity:1" fill="#2ec9cc" d="M 261.5,70.5 C 271.172,70.3335 280.839,70.5002 290.5,71C 293.381,72.2506 295.214,74.4173 296,77.5C 296.667,85.8333 296.667,94.1667 296,102.5C 295.31,105.196 293.81,107.363 291.5,109C 261.281,118.771 249.448,108.271 256,77.5C 256.967,74.3794 258.8,72.046 261.5,70.5 Z"/></g>
<g><path style="opacity:1" fill="#2a4362" d="M 262.5,72.5 C 271.173,72.3336 279.84,72.5002 288.5,73C 289.766,73.3095 290.933,73.8095 292,74.5C 293.615,84.4002 293.949,94.4002 293,104.5C 292.167,105.333 291.333,106.167 290.5,107C 280.833,107.667 271.167,107.667 261.5,107C 260.667,106.167 259.833,105.333 259,104.5C 258.333,95.1667 258.333,85.8333 259,76.5C 259.69,74.6498 260.856,73.3164 262.5,72.5 Z"/></g>
<g><path style="opacity:1" fill="#2ecdcf" d="M 389.5,79.5 C 402.837,79.3334 416.171,79.5001 429.5,80C 434.573,81.4056 438.073,84.5723 440,89.5C 440.667,102.5 440.667,115.5 440,128.5C 438.5,134 435,137.5 429.5,139C 416.833,139.667 404.167,139.667 391.5,139C 386.427,137.594 382.927,134.428 381,129.5C 380.333,115.833 380.333,102.167 381,88.5C 382.688,84.3148 385.521,81.3148 389.5,79.5 Z"/></g>
<g><path style="opacity:1" fill="#2a4362" d="M 390.5,81.5 C 403.504,81.3334 416.504,81.5001 429.5,82C 432.102,82.8834 434.269,84.3834 436,86.5C 437.632,100.74 437.965,115.073 437,129.5C 435.612,132.945 433.112,135.111 429.5,136C 416.167,136.667 402.833,136.667 389.5,136C 385.835,134.332 383.668,131.499 383,127.5C 382.333,114.833 382.333,102.167 383,89.5C 385.028,86.3078 387.528,83.6411 390.5,81.5 Z"/></g>
<g><path style="opacity:1" fill="#2ed6d6" d="M 257.5,149.5 C 264.175,149.334 270.842,149.5 277.5,150C 278.931,150.465 280.097,151.299 281,152.5C 281.667,158.833 281.667,165.167 281,171.5C 280.215,173.286 279.049,174.786 277.5,176C 271.167,176.667 264.833,176.667 258.5,176C 257.667,175.167 256.833,174.333 256,173.5C 254.409,166.608 254.076,159.608 255,152.5C 256.045,151.627 256.878,150.627 257.5,149.5 Z"/></g>
<g><path style="opacity:1" fill="#2a4664" d="M 259.5,151.5 C 265.509,151.334 271.509,151.501 277.5,152C 278,152.5 278.5,153 279,153.5C 279.667,159.5 279.667,165.5 279,171.5C 278.5,172 278,172.5 277.5,173C 271.167,173.667 264.833,173.667 258.5,173C 258,172.5 257.5,172 257,171.5C 256.333,165.5 256.333,159.5 257,153.5C 257.995,152.934 258.828,152.267 259.5,151.5 Z"/></g>
<g><path style="opacity:1" fill="#2ecfd0" d="M 312.5,149.5 C 328.503,149.333 344.503,149.5 360.5,150C 367.07,152.238 371.237,156.738 373,163.5C 373.667,178.167 373.667,192.833 373,207.5C 371.237,214.262 367.07,218.762 360.5,221C 344.5,221.667 328.5,221.667 312.5,221C 306.269,219.037 302.436,214.87 301,208.5C 300.333,193.167 300.333,177.833 301,162.5C 303.273,156.73 307.106,152.397 312.5,149.5 Z"/></g>
<g><path style="opacity:1" fill="#2a4362" d="M 313.5,151.5 C 328.504,151.333 343.504,151.5 358.5,152C 364.127,152.957 367.96,156.124 370,161.5C 370.667,177.167 370.667,192.833 370,208.5C 368.5,214 365,217.5 359.5,219C 344.167,219.667 328.833,219.667 313.5,219C 308.64,217.474 305.474,214.307 304,209.5C 303.333,193.167 303.333,176.833 304,160.5C 306.406,156.592 309.572,153.592 313.5,151.5 Z"/></g>
<g><path style="opacity:1" fill="#2ed7d7" d="M 174.5,169.5 C 180.842,169.334 187.175,169.5 193.5,170C 194.667,171.167 195.833,172.333 197,173.5C 197.667,179.833 197.667,186.167 197,192.5C 196.167,193.5 195.333,194.5 194.5,195.5C 187.884,196.628 181.218,196.795 174.5,196C 173.584,195.626 172.75,195.126 172,194.5C 170.409,187.608 170.076,180.608 171,173.5C 171.69,171.65 172.856,170.316 174.5,169.5 Z"/></g>
<g><path style="opacity:1" fill="#2a4664" d="M 175.5,171.5 C 181.176,171.334 186.843,171.501 192.5,172C 193.333,172.833 194.167,173.667 195,174.5C 195.667,180.167 195.667,185.833 195,191.5C 194.167,192.333 193.333,193.167 192.5,194C 186.833,194.667 181.167,194.667 175.5,194C 174.692,193.692 174.025,193.192 173.5,192.5C 172.376,186.552 172.21,180.552 173,174.5C 174.045,173.627 174.878,172.627 175.5,171.5 Z"/></g>
<g><path style="opacity:1" fill="#2ed2d3" d="M 222.5,209.5 C 231.839,209.334 241.173,209.5 250.5,210C 252.624,211.122 254.457,212.622 256,214.5C 256.667,224.167 256.667,233.833 256,243.5C 255.215,245.286 254.049,246.786 252.5,248C 242.934,249.613 233.267,249.947 223.5,249C 220.333,247.833 218.167,245.667 217,242.5C 216.333,233.5 216.333,224.5 217,215.5C 218.36,212.977 220.193,210.977 222.5,209.5 Z"/></g>
<g><path style="opacity:1" fill="#2a4462" d="M 223.5,211.5 C 232.173,211.334 240.84,211.5 249.5,212C 251.286,212.785 252.786,213.951 254,215.5C 254.667,224.5 254.667,233.5 254,242.5C 253.626,243.416 253.126,244.25 252.5,245C 242.6,246.615 232.6,246.949 222.5,246C 221.667,245.167 220.833,244.333 220,243.5C 218.42,234.576 218.087,225.576 219,216.5C 220.025,214.313 221.525,212.646 223.5,211.5 Z"/></g>
<g><path style="opacity:1" fill="#41b6d2" d="M 297.5,285.5 C 302.88,285.324 308.213,285.658 313.5,286.5C 313.5,289.833 313.5,293.167 313.5,296.5C 312.167,296.5 310.833,296.5 309.5,296.5C 310.332,291.001 307.998,288.334 302.5,288.5C 297.153,288.674 293.653,291.341 292,296.5C 290.902,303.385 291.569,310.051 294,316.5C 297.87,321.563 302.704,322.73 308.5,320C 309.26,318.559 309.926,317.059 310.5,315.5C 311.689,314.571 313.022,314.238 314.5,314.5C 314.221,317.118 313.554,319.618 312.5,322C 292.913,327.422 283.747,319.922 285,299.5C 286.926,292.745 291.093,288.078 297.5,285.5 Z"/></g>
<g><path style="opacity:1" fill="#42bbd6" d="M 318.5,285.5 C 326.585,285.099 334.585,285.599 342.5,287C 348.095,293.042 347.428,298.375 340.5,303C 348.031,304.62 350.531,309.12 348,316.5C 346.878,318.624 345.378,320.457 343.5,322C 335.236,323.37 326.903,323.87 318.5,323.5C 318.5,322.5 318.5,321.5 318.5,320.5C 319.833,320.5 321.167,320.5 322.5,320.5C 322.5,309.833 322.5,299.167 322.5,288.5C 321.167,288.5 319.833,288.5 318.5,288.5C 318.5,287.5 318.5,286.5 318.5,285.5 Z"/></g>
<g><path style="opacity:1" fill="#42bad5" d="M 381.5,285.5 C 386.248,285.275 390.915,285.775 395.5,287C 396.444,289.719 396.777,292.552 396.5,295.5C 395.5,295.5 394.5,295.5 393.5,295.5C 393.683,293.064 393.016,290.897 391.5,289C 388.5,288.333 385.5,288.333 382.5,289C 378.633,292.249 378.633,295.582 382.5,299C 388.251,301.289 393.418,304.455 398,308.5C 400.143,318.717 395.81,324.051 385,324.5C 381.473,323.909 377.973,323.242 374.5,322.5C 374.5,319.167 374.5,315.833 374.5,312.5C 375.833,312.5 377.167,312.5 378.5,312.5C 378.337,314.857 378.503,317.19 379,319.5C 383.164,322.11 387.33,322.11 391.5,319.5C 394.113,316.37 394.113,313.204 391.5,310C 387.5,308 383.5,306 379.5,304C 372.352,296.885 373.018,290.718 381.5,285.5 Z"/></g>
<g><path style="opacity:1" fill="#42b7d3" d="M 200.5,285.5 C 205.167,285.5 209.833,285.5 214.5,285.5C 216.825,294.976 219.658,304.309 223,313.5C 225.462,304.445 228.129,295.445 231,286.5C 235.401,285.533 239.901,285.2 244.5,285.5C 244.5,286.5 244.5,287.5 244.5,288.5C 242.833,288.5 241.167,288.5 239.5,288.5C 240.833,299.161 242.166,309.827 243.5,320.5C 245.833,320.5 248.167,320.5 250.5,320.5C 254.026,309.09 257.859,297.757 262,286.5C 264.642,284.941 266.975,285.275 269,287.5C 272.864,298.092 276.531,308.759 280,319.5C 281.011,320.337 282.178,320.67 283.5,320.5C 283.5,321.5 283.5,322.5 283.5,323.5C 279.167,323.5 274.833,323.5 270.5,323.5C 270.5,322.5 270.5,321.5 270.5,320.5C 271.873,320.657 273.207,320.49 274.5,320C 273.331,317.993 272.665,315.827 272.5,313.5C 267.167,313.5 261.833,313.5 256.5,313.5C 256.335,315.827 255.669,317.993 254.5,320C 256.134,320.494 257.801,320.66 259.5,320.5C 259.5,321.5 259.5,322.5 259.5,323.5C 250.5,323.5 241.5,323.5 232.5,323.5C 232.5,322.5 232.5,321.5 232.5,320.5C 234.167,320.5 235.833,320.5 237.5,320.5C 236.484,310.157 235.317,299.823 234,289.5C 230.469,299.761 227.135,310.094 224,320.5C 222.667,321.833 221.333,321.833 220,320.5C 216.864,310.759 213.531,301.092 210,291.5C 209.667,291.833 209.333,292.167 209,292.5C 207.791,301.8 206.958,311.133 206.5,320.5C 208.167,320.5 209.833,320.5 211.5,320.5C 211.5,321.5 211.5,322.5 211.5,323.5C 206.833,323.5 202.167,323.5 197.5,323.5C 197.5,322.5 197.5,321.5 197.5,320.5C 199.167,320.5 200.833,320.5 202.5,320.5C 203.39,309.815 204.39,299.148 205.5,288.5C 203.833,288.5 202.167,288.5 200.5,288.5C 200.5,287.5 200.5,286.5 200.5,285.5 Z"/></g>
<g><path style="opacity:1" fill="#43bed9" d="M 357.5,320.5 C 358.494,310.013 358.828,299.346 358.5,288.5C 357.5,288.5 356.5,288.5 355.5,288.5C 353.952,288.179 353.285,287.179 353.5,285.5C 358.5,285.5 363.5,285.5 368.5,285.5C 368.5,286.5 368.5,287.5 368.5,288.5C 366.833,288.5 365.167,288.5 363.5,288.5C 363.5,299.167 363.5,309.833 363.5,320.5C 365.167,320.5 366.833,320.5 368.5,320.5C 368.5,321.5 368.5,322.5 368.5,323.5C 363.5,323.5 358.5,323.5 353.5,323.5C 353.5,322.5 353.5,321.5 353.5,320.5C 354.833,320.5 356.167,320.5 357.5,320.5 Z"/></g>
<g><path style="opacity:1" fill="#2b4867" d="M 327.5,288.5 C 339.069,286.221 342.736,290.387 338.5,301C 334.974,302.337 331.308,302.837 327.5,302.5C 327.5,297.833 327.5,293.167 327.5,288.5 Z"/></g>
<g><path style="opacity:1" fill="#326c8a" d="M 355.5,288.5 C 356.5,288.5 357.5,288.5 358.5,288.5C 358.828,299.346 358.494,310.013 357.5,320.5C 358.107,309.577 357.44,298.91 355.5,288.5 Z"/></g>
<g><path style="opacity:1" fill="#2b4967" d="M 263.5,291.5 C 264.79,292.058 265.623,293.058 266,294.5C 267.81,299.429 269.31,304.429 270.5,309.5C 266.5,309.5 262.5,309.5 258.5,309.5C 260.166,303.501 261.833,297.501 263.5,291.5 Z"/></g>
<g><path style="opacity:1" fill="#2b4766" d="M 327.5,305.5 C 331.936,305.21 336.27,305.71 340.5,307C 343.099,310.933 343.099,314.933 340.5,319C 336.3,320.367 331.967,320.867 327.5,320.5C 327.5,315.5 327.5,310.5 327.5,305.5 Z"/></g>
<g><path style="opacity:1" fill="#c6c9cc" d="M 184.5,366.5 C 189.167,366.5 193.833,366.5 198.5,366.5C 198.762,367.978 198.429,369.311 197.5,370.5C 195.132,368.777 192.466,368.11 189.5,368.5C 189.5,370.833 189.5,373.167 189.5,375.5C 191.821,375.771 193.821,375.104 195.5,373.5C 196.833,375.833 196.833,378.167 195.5,380.5C 194.614,379.675 194.281,378.675 194.5,377.5C 192.833,377.5 191.167,377.5 189.5,377.5C 189.5,380.167 189.5,382.833 189.5,385.5C 193.397,386.03 196.73,385.03 199.5,382.5C 200.452,384.045 200.785,385.712 200.5,387.5C 194.824,387.666 189.157,387.499 183.5,387C 184.025,386.308 184.692,385.808 185.5,385.5C 186.983,378.984 186.65,372.651 184.5,366.5 Z"/></g>
<g><path style="opacity:1" fill="#cacccf" d="M 229.5,366.5 C 232.572,366.183 235.572,366.516 238.5,367.5C 237.675,368.386 236.675,368.719 235.5,368.5C 235.171,374.206 235.505,379.872 236.5,385.5C 237.308,385.808 237.975,386.308 238.5,387C 235.446,387.821 232.446,387.655 229.5,386.5C 230.325,385.614 231.325,385.281 232.5,385.5C 232.5,379.833 232.5,374.167 232.5,368.5C 230.821,368.715 229.821,368.048 229.5,366.5 Z"/></g>
<g><path style="opacity:1" fill="#c9cbce" d="M 272.5,366.5 C 274.604,366.201 276.604,366.534 278.5,367.5C 281.471,372.303 284.638,376.97 288,381.5C 289.025,376.598 288.525,371.931 286.5,367.5C 288.5,366.167 290.5,366.167 292.5,367.5C 290.593,373.951 289.927,380.617 290.5,387.5C 289.325,387.719 288.325,387.386 287.5,386.5C 283.803,381.302 280.303,375.969 277,370.5C 276.501,375.489 276.334,380.489 276.5,385.5C 280.444,386.274 280.277,386.941 276,387.5C 274.833,387.167 273.667,386.833 272.5,386.5C 273.738,383.531 274.405,380.364 274.5,377C 274.328,373.318 273.661,369.818 272.5,366.5 Z"/></g>
<g><path style="opacity:1" fill="#c5c8cb" d="M 332.5,366.5 C 335.247,366.187 337.914,366.52 340.5,367.5C 339.833,368.167 339.167,368.833 338.5,369.5C 339.747,372.329 341.247,374.995 343,377.5C 343.892,374.716 345.058,372.05 346.5,369.5C 346.167,368.833 345.833,368.167 345.5,367.5C 347.5,366.167 349.5,366.167 351.5,367.5C 346.63,372.569 343.963,378.569 343.5,385.5C 345.103,385.312 346.437,385.812 347.5,387C 344.118,387.824 340.784,387.657 337.5,386.5C 338.325,385.614 339.325,385.281 340.5,385.5C 340.663,383.143 340.497,380.81 340,378.5C 337.714,374.239 335.214,370.239 332.5,366.5 Z"/></g>
<g><path style="opacity:1" fill="#c4c7cb" d="M 378.5,366.5 C 384.833,366.5 391.167,366.5 397.5,366.5C 397.813,369.247 397.48,371.914 396.5,374.5C 395.232,372.696 394.565,370.696 394.5,368.5C 392.833,368.5 391.167,368.5 389.5,368.5C 389.5,374.167 389.5,379.833 389.5,385.5C 390.978,385.238 392.311,385.571 393.5,386.5C 389.833,387.833 386.167,387.833 382.5,386.5C 383.689,385.571 385.022,385.238 386.5,385.5C 386.5,379.833 386.5,374.167 386.5,368.5C 384.833,368.5 383.167,368.5 381.5,368.5C 381.435,370.696 380.768,372.696 379.5,374.5C 378.52,371.914 378.187,369.247 378.5,366.5 Z"/></g>
<g><path style="opacity:1" fill="#c3c6ca" d="M 416.5,368.5 C 414.393,367.532 412.059,367.198 409.5,367.5C 409.5,370.5 409.5,373.5 409.5,376.5C 411.415,376.784 413.081,376.451 414.5,375.5C 414.369,374.624 414.702,373.957 415.5,373.5C 416.833,375.833 416.833,378.167 415.5,380.5C 414.614,379.675 414.281,378.675 414.5,377.5C 413.167,377.5 411.833,377.5 410.5,377.5C 410.5,380.167 410.5,382.833 410.5,385.5C 413.167,385.5 415.833,385.5 418.5,385.5C 418.281,384.325 418.614,383.325 419.5,382.5C 420.452,384.045 420.785,385.712 420.5,387.5C 415.125,387.828 409.792,387.495 404.5,386.5C 405.738,383.531 406.405,380.364 406.5,377C 406.405,373.636 405.738,370.469 404.5,367.5C 409.456,366.506 414.456,366.173 419.5,366.5C 419.651,371.614 418.651,372.281 416.5,368.5 Z"/></g>
<g><path style="opacity:1" fill="#c3c6ca" d="M 428.5,366.5 C 431.167,366.5 433.833,366.5 436.5,366.5C 437.388,371.394 438.888,376.061 441,380.5C 442.131,376.106 443.465,371.773 445,367.5C 447.401,366.398 449.901,366.231 452.5,367C 451.342,368.009 450.675,369.342 450.5,371C 451.285,375.803 451.618,380.637 451.5,385.5C 452.675,385.281 453.675,385.614 454.5,386.5C 451.833,387.833 449.167,387.833 446.5,386.5C 447.642,384.883 448.309,383.05 448.5,381C 448.041,376.828 447.541,372.662 447,368.5C 445.126,374.624 442.959,380.624 440.5,386.5C 437.527,380.763 435.027,374.763 433,368.5C 432.688,374.199 432.188,379.866 431.5,385.5C 432.675,385.281 433.675,385.614 434.5,386.5C 431.833,387.833 429.167,387.833 426.5,386.5C 427.325,385.614 428.325,385.281 429.5,385.5C 429.888,381.847 430.221,378.18 430.5,374.5C 430.253,371.651 429.587,368.984 428.5,366.5 Z"/></g>
<g><path style="opacity:1" fill="#c7cacd" d="M 157.5,366.5 C 161.846,366.334 166.179,366.501 170.5,367C 176.089,369.451 177.922,373.617 176,379.5C 174.56,385.893 170.56,388.559 164,387.5C 161.833,387.167 159.667,386.833 157.5,386.5C 158.738,383.531 159.405,380.364 159.5,377C 159.328,373.318 158.661,369.818 157.5,366.5 Z"/></g>
<g><path style="opacity:1" fill="#c3c6ca" d="M 211.5,366.5 C 214.5,366.5 217.5,366.5 220.5,366.5C 220.799,368.604 220.466,370.604 219.5,372.5C 218.571,371.311 218.238,369.978 218.5,368.5C 216.167,368.5 213.833,368.5 211.5,368.5C 211.215,370.288 211.548,371.955 212.5,373.5C 215.492,374.887 218.325,376.554 221,378.5C 222.12,381.999 221.287,384.833 218.5,387C 215.167,387.667 211.833,387.667 208.5,387C 207.594,385.301 207.261,383.467 207.5,381.5C 208.5,381.5 209.5,381.5 210.5,381.5C 210.5,382.833 210.5,384.167 210.5,385.5C 212.857,385.663 215.19,385.497 217.5,385C 218.833,383.333 218.833,381.667 217.5,380C 214.241,378.789 211.408,376.956 209,374.5C 207.837,371.029 208.67,368.362 211.5,366.5 Z"/></g>
<g><path style="opacity:1" fill="#c8cacd" d="M 252.5,366.5 C 256.167,366.5 259.833,366.5 263.5,366.5C 263.799,368.604 263.466,370.604 262.5,372.5C 260.889,371.68 260.222,370.346 260.5,368.5C 253.433,366.573 249.766,369.24 249.5,376.5C 249.413,381.697 251.747,385.03 256.5,386.5C 257.554,386.32 258.554,385.987 259.5,385.5C 260.474,383.257 260.808,380.924 260.5,378.5C 255.248,377.742 255.415,377.075 261,376.5C 262.5,376.833 264,377.167 265.5,377.5C 264.047,380.298 263.047,383.298 262.5,386.5C 249.928,390.096 244.761,385.429 247,372.5C 248.36,369.977 250.193,367.977 252.5,366.5 Z"/></g>
<g><path style="opacity:1" fill="#c3c6ca" d="M 361.5,366.5 C 364.5,366.5 367.5,366.5 370.5,366.5C 370.799,368.604 370.466,370.604 369.5,372.5C 368.571,371.311 368.238,369.978 368.5,368.5C 366.167,368.5 363.833,368.5 361.5,368.5C 361.215,370.288 361.548,371.955 362.5,373.5C 365.492,374.887 368.325,376.554 371,378.5C 372.12,381.999 371.287,384.833 368.5,387C 365.167,387.667 361.833,387.667 358.5,387C 357.594,385.301 357.261,383.467 357.5,381.5C 358.5,381.5 359.5,381.5 360.5,381.5C 360.5,382.833 360.5,384.167 360.5,385.5C 362.857,385.663 365.19,385.497 367.5,385C 368.833,383.333 368.833,381.667 367.5,380C 364.241,378.789 361.408,376.956 359,374.5C 357.837,371.029 358.67,368.362 361.5,366.5 Z"/></g>
<g><path style="opacity:1" fill="#596a81" d="M 167.5,368.5 C 166.167,368.5 164.833,368.5 163.5,368.5C 163.5,374.167 163.5,379.833 163.5,385.5C 165.167,385.5 166.833,385.5 168.5,385.5C 166.735,386.461 164.735,386.795 162.5,386.5C 162.5,380.167 162.5,373.833 162.5,367.5C 164.415,367.216 166.081,367.549 167.5,368.5 Z"/></g>
<g><path style="opacity:1" fill="#2a4362" d="M 167.5,368.5 C 171.807,369.664 173.474,372.498 172.5,377C 173.245,380.916 171.912,383.749 168.5,385.5C 166.833,385.5 165.167,385.5 163.5,385.5C 163.5,379.833 163.5,374.167 163.5,368.5C 164.833,368.5 166.167,368.5 167.5,368.5 Z"/></g>
<g><path style="opacity:1" fill="#c0c4c8" d="M 315.5,366.5 C 318.833,366.5 322.167,366.5 325.5,366.5C 325.799,368.604 325.466,370.604 324.5,372.5C 323.571,371.311 323.238,369.978 323.5,368.5C 321.167,368.5 318.833,368.5 316.5,368.5C 316.34,370.199 316.506,371.866 317,373.5C 320.344,375.004 323.344,377.004 326,379.5C 327.041,382.636 326.207,385.136 323.5,387C 320.167,387.667 316.833,387.667 313.5,387C 312.594,385.301 312.261,383.467 312.5,381.5C 313.5,381.5 314.5,381.5 315.5,381.5C 315.5,382.833 315.5,384.167 315.5,385.5C 317.857,385.663 320.19,385.497 322.5,385C 323.833,383.333 323.833,381.667 322.5,380C 318.688,378.685 315.521,376.518 313,373.5C 312.683,370.793 313.516,368.46 315.5,366.5 Z"/></g>
<g><path style="opacity:1" fill="#8793a1" d="M 416.5,368.5 C 414.5,368.5 412.5,368.5 410.5,368.5C 410.5,370.833 410.5,373.167 410.5,375.5C 411.833,375.5 413.167,375.5 414.5,375.5C 413.081,376.451 411.415,376.784 409.5,376.5C 409.5,373.5 409.5,370.5 409.5,367.5C 412.059,367.198 414.393,367.532 416.5,368.5 Z"/></g>
</svg>
